<svg width="41" height="32" viewBox="0 0 41 32" fill="none" xmlns="http://www.w3.org/2000/svg">
<path d="M35.9447 0.897217H5.6725C2.99055 0.897217 0.808594 3.07917 0.808594 5.76104V26.2389C0.808594 28.9209 2.99055 31.1028 5.6725 31.1028H35.9447C38.6267 31.1028 40.8086 28.9209 40.8086 26.2389V5.76104C40.8086 3.07917 38.6267 0.897217 35.9447 0.897217ZM33.6142 2.52979L20.7976 12.8898L7.98094 2.52979H33.6142ZM34.2559 29.4701H7.33922V10.4048L20.2855 20.8337C20.5844 21.0745 21.0108 21.0745 21.3097 20.8337L34.2559 10.4048V29.4701H34.2559ZM39.1759 26.2389C39.1759 28.0206 37.7264 29.47 35.9447 29.47H35.8887V8.69893C35.8887 8.38464 35.7083 8.09831 35.4247 7.96261C35.1409 7.82683 34.8048 7.86612 34.5602 8.06323L20.7976 19.1498L7.03492 8.06323C6.79008 7.86612 6.45383 7.82683 6.17047 7.96261C5.88688 8.09831 5.70648 8.38464 5.70648 8.69893V29.47H5.67242C3.89078 29.4701 2.44125 28.0206 2.44125 26.2389V5.76104C2.44125 4.07151 3.745 2.68151 5.39914 2.54229L20.2845 14.5745C20.4341 14.6955 20.6159 14.756 20.7976 14.756C20.9794 14.756 21.1611 14.6955 21.3107 14.5745L36.1979 2.54065C37.8616 2.67034 39.1759 4.06464 39.1759 5.76097V26.2389Z" fill="#542900"/>
</svg>
